<?xml version="1.0" encoding="utf-8"?>
<!-- Generator: Adobe Illustrator 23.0.0, SVG Export Plug-In . SVG Version: 6.00 Build 0)  -->
<svg version="1.1" id="Layer_1" xmlns="http://www.w3.org/2000/svg" xmlns:xlink="http://www.w3.org/1999/xlink" x="0px" y="0px"
	 viewBox="0 0 1920 1080" style="enable-background:new 0 0 1920 1080;" xml:space="preserve">
<style type="text/css">
	.st0{fill:url(#SVGID_1_);}
	.st1{fill:none;}
	.st2{fill:url(#SVGID_2_);}
	.st3{fill:url(#SVGID_3_);}
	.st4{fill:url(#SVGID_4_);}
	.st5{fill:url(#SVGID_5_);}
	.st6{fill:url(#SVGID_6_);}
	.st7{fill:url(#SVGID_7_);}
	.st8{fill:url(#SVGID_8_);}
	.st9{fill:url(#SVGID_9_);}
	.st10{fill:url(#SVGID_10_);}
	.st11{fill:url(#SVGID_11_);}
	.st12{fill:url(#SVGID_12_);}
	.st13{fill:url(#SVGID_13_);}
</style>
<g>
	<linearGradient id="SVGID_1_" gradientUnits="userSpaceOnUse" x1="102.0003" y1="835.8314" x2="1917.1364" y2="209.987">
		<stop  offset="0.2026" style="stop-color:#414042;stop-opacity:0.9"/>
		<stop  offset="0.204" style="stop-color:#444444;stop-opacity:0.9004"/>
		<stop  offset="0.2253" style="stop-color:#6B6C5E;stop-opacity:0.9071"/>
		<stop  offset="0.248" style="stop-color:#8A8A67;stop-opacity:0.9142"/>
		<stop  offset="0.2725" style="stop-color:#A6A468;stop-opacity:0.9218"/>
		<stop  offset="0.2986" style="stop-color:#BFBA64;stop-opacity:0.93"/>
		<stop  offset="0.327" style="stop-color:#D3CC59;stop-opacity:0.9388"/>
		<stop  offset="0.3584" style="stop-color:#E3DA4C;stop-opacity:0.9487"/>
		<stop  offset="0.3947" style="stop-color:#EEE33E;stop-opacity:0.96"/>
		<stop  offset="0.44" style="stop-color:#F5EA35;stop-opacity:0.9741"/>
		<stop  offset="0.5229" style="stop-color:#F9ED32"/>
		<stop  offset="0.5826" style="stop-color:#F5E935"/>
		<stop  offset="0.6218" style="stop-color:#EDE23F"/>
		<stop  offset="0.6551" style="stop-color:#E1D84E"/>
		<stop  offset="0.6851" style="stop-color:#D0C95C"/>
		<stop  offset="0.7129" style="stop-color:#BAB565"/>
		<stop  offset="0.7391" style="stop-color:#9F9D68"/>
		<stop  offset="0.764" style="stop-color:#828165"/>
		<stop  offset="0.7873" style="stop-color:#606057"/>
		<stop  offset="0.8032" style="stop-color:#414042"/>
	</linearGradient>
	<rect class="st0" width="1920" height="1080"/>
	<g>
		<g>
			<polygon class="st1" points="555.9,455 684.5,455 684.5,400.1 555.9,400.1 555.9,336.6 701.4,336.6 701.4,284.6 496,284.6 
				496,567 714.9,567 714.9,514.9 555.9,514.9 			"/>
			<polygon class="st1" points="949.9,567.8 1002.4,567.8 1005.6,204.7 953,204.7 949.9,460.9 824.1,285 753.1,285 749.7,676 
				803.8,676 807.1,372.9 			"/>
			<rect x="1050.9" y="285.8" class="st1" width="61.9" height="281.6"/>
			<polygon class="st1" points="1610.2,386.3 1479.6,386.3 1479.6,284.2 1419.3,284.2 1419.3,566.6 1479.6,566.6 1479.6,446.7 
				1610.2,446.7 1610.2,566.6 1670.9,566.6 1670.9,285 1610.2,285 			"/>
			<polygon class="st1" points="1149.1,337.8 1238.6,337.8 1238.6,567.4 1300.6,567.4 1300.6,338.2 1389.3,338.2 1389.3,286.2 
				1149.1,286.2 			"/>
			<polygon class="st1" points="462.8,334.7 462.8,285.8 241.2,285.8 241.2,337.8 380.4,337.8 229.3,518.5 229.3,567.4 466.8,567.4 
				466.8,515.3 311.8,515.3 			"/>
			<linearGradient id="SVGID_2_" gradientUnits="userSpaceOnUse" x1="161.96" y1="440.3393" x2="952.2668" y2="440.3393">
				<stop  offset="0" style="stop-color:#2B3990"/>
				<stop  offset="1" style="stop-color:#8DC63F;stop-opacity:0.5"/>
			</linearGradient>
			<path class="st2" d="M824.1,285l125.8,175.9l2.3-197.9c0.4-32.1-25.5-58.3-57.6-58.3H318.4c-86.4,0-156.4,70-156.4,156.4v305
				c0,5.5,4.4,9.9,9.9,9.9h520.7c31.6,0,57.3-25.5,57.6-57.1l2.9-333.9H824.1z M466.8,567.4H229.3v-48.9l151.1-180.6H241.2v-52.1
				h221.7v48.9L311.8,515.3h155V567.4z M714.9,567H496V284.6h205.5v52.1H555.9v63.5h128.6V455H555.9v60h158.9V567z"/>
			<linearGradient id="SVGID_3_" gradientUnits="userSpaceOnUse" x1="804.47" y1="440.3393" x2="1758.04" y2="440.3393">
				<stop  offset="0" style="stop-color:#BE1E2D;stop-opacity:0.9"/>
				<stop  offset="0.5503" style="stop-color:#F9ED32;stop-opacity:0.8"/>
				<stop  offset="1" style="stop-color:#ED1C24"/>
			</linearGradient>
			<path class="st3" d="M1748.1,204.7h-685.4c-31.6,0-57.3,25.5-57.6,57.1l-2.7,306h-52.5L807.1,372.9l-2.7,244.8
				c-0.4,32.1,25.6,58.3,57.6,58.3h739.5c86.4,0,156.4-70,156.4-156.4v-305C1758,209.1,1753.6,204.7,1748.1,204.7z M1112.8,567.4
				h-61.9V285.8h61.9V567.4z M1389.3,338.2h-88.7v229.2h-61.9V337.8h-89.5v-51.7h240.2V338.2z M1670.9,566.6h-60.7V446.7h-130.6
				v119.9h-60.3V284.2h60.3v102.2h130.6V285h60.7V566.6z"/>
		</g>
		<g>
			<linearGradient id="SVGID_4_" gradientUnits="userSpaceOnUse" x1="205.8455" y1="802.3972" x2="337.7472" y2="802.3972">
				<stop  offset="0" style="stop-color:#ED1C24;stop-opacity:0.9"/>
				<stop  offset="0.5503" style="stop-color:#8DC63F;stop-opacity:0.8"/>
				<stop  offset="1" style="stop-color:#DA1C5C"/>
			</linearGradient>
			<path class="st4" d="M275.9,872.4c-38.7,0-70-31.3-70-70c0-38.3,31.3-70,70-70c26.5,0,48.9,14.7,60.7,35.8
				c-11.8,6.2-12.8,6.8-25.9,13.2c-6.8-11.8-19.9-19.9-34.8-19.9c-22.6,0-41,18.6-41,41c0,22.6,18.4,41,41,41c15.5,0,29-8.3,36-21.5
				c13.2,6.8,13.5,7.5,25.9,13.2C325.9,857.3,303.1,872.4,275.9,872.4z"/>
			<linearGradient id="SVGID_5_" gradientUnits="userSpaceOnUse" x1="365.9913" y1="802.3005" x2="508.9172" y2="802.3005">
				<stop  offset="0" style="stop-color:#ED1C24;stop-opacity:0.9"/>
				<stop  offset="0.5503" style="stop-color:#8DC63F;stop-opacity:0.8"/>
				<stop  offset="1" style="stop-color:#DA1C5C"/>
			</linearGradient>
			<path class="st5" d="M437.4,873.8c-39.5,0-71.4-31.9-71.4-71.4c0-39.6,31.9-71.6,71.4-71.6c39.3,0,71.6,31.9,71.6,71.6
				C508.9,841.9,476.6,873.8,437.4,873.8z M395.2,802.4c0,23,19.1,42.2,42.2,42.2c23,0,41.8-19.1,41.8-42.2
				c0-23-18.8-42.4-41.8-42.4C414.3,760,395.2,779.4,395.2,802.4z"/>
			<linearGradient id="SVGID_6_" gradientUnits="userSpaceOnUse" x1="542.9641" y1="802.8806" x2="665.1953" y2="802.8806">
				<stop  offset="0" style="stop-color:#ED1C24;stop-opacity:0.9"/>
				<stop  offset="0.5503" style="stop-color:#8DC63F;stop-opacity:0.8"/>
				<stop  offset="1" style="stop-color:#DA1C5C"/>
			</linearGradient>
			<path class="st6" d="M569.5,776.7v95.5H543V733.5h34.8l61.7,86.3v-86.3h25.7v138.7h-25.7L569.5,776.7z"/>
			<linearGradient id="SVGID_7_" gradientUnits="userSpaceOnUse" x1="699.6284" y1="802.9773" x2="815.8646" y2="802.9773">
				<stop  offset="0" style="stop-color:#ED1C24;stop-opacity:0.9"/>
				<stop  offset="0.5503" style="stop-color:#8DC63F;stop-opacity:0.8"/>
				<stop  offset="1" style="stop-color:#DA1C5C"/>
			</linearGradient>
			<path class="st7" d="M729,831c3.1,18.2,19.3,20.7,30.6,20.7c10.6,0,26.9-3.1,26.9-17.2c0-29.4-82.2-10.4-82.2-62.1
				c0-28.4,26.7-41.8,51.6-41.8c28.8,0,55.3,12.6,55.3,44.5l-29.4-4.3c-3.7-16.1-17.8-16.6-27.3-16.6c-9.7,0-20.9,4.1-20.9,15.7
				c0,10.3,6.6,12.6,41.2,20.9c10.3,2.5,41,8.9,41,40.2c0,25.3-19.7,44.3-57.4,44.3c-30.9,0-58.8-15.1-58.8-49.1L729,831z"/>
			<linearGradient id="SVGID_8_" gradientUnits="userSpaceOnUse" x1="852.6149" y1="804.6211" x2="970.3989" y2="804.6211">
				<stop  offset="0" style="stop-color:#ED1C24;stop-opacity:0.9"/>
				<stop  offset="0.5503" style="stop-color:#8DC63F;stop-opacity:0.8"/>
				<stop  offset="1" style="stop-color:#DA1C5C"/>
			</linearGradient>
			<path class="st8" d="M970.4,819.8c0,37.3-22,55.5-59,55.5c-37.3,0-58.8-17.8-58.8-55.5v-85.9H883v85.9c0,15.1,3.9,30,28.4,30
				c21.7,0,28.6-9.3,28.6-30v-85.9h30.4V819.8z"/>
			<linearGradient id="SVGID_9_" gradientUnits="userSpaceOnUse" x1="1012.9541" y1="802.2038" x2="1113.5243" y2="802.2038">
				<stop  offset="0" style="stop-color:#ED1C24;stop-opacity:0.9"/>
				<stop  offset="0.5503" style="stop-color:#8DC63F;stop-opacity:0.8"/>
				<stop  offset="1" style="stop-color:#DA1C5C"/>
			</linearGradient>
			<path class="st9" d="M1013,871.1V733.4h29.8v112.2h70.8v25.5H1013z"/>
			<linearGradient id="SVGID_10_" gradientUnits="userSpaceOnUse" x1="1119.5232" y1="803.074" x2="1237.3073" y2="803.074">
				<stop  offset="0" style="stop-color:#ED1C24;stop-opacity:0.9"/>
				<stop  offset="0.5503" style="stop-color:#8DC63F;stop-opacity:0.8"/>
				<stop  offset="1" style="stop-color:#DA1C5C"/>
			</linearGradient>
			<path class="st10" d="M1163.4,759.5h-43.9v-25.3h117.8v25.5h-43.5V872h-30.4V759.5z"/>
			<linearGradient id="SVGID_11_" gradientUnits="userSpaceOnUse" x1="1246.5977" y1="803.074" x2="1401.5154" y2="803.074">
				<stop  offset="0" style="stop-color:#ED1C24;stop-opacity:0.9"/>
				<stop  offset="0.5503" style="stop-color:#8DC63F;stop-opacity:0.8"/>
				<stop  offset="1" style="stop-color:#DA1C5C"/>
			</linearGradient>
			<path class="st11" d="M1246.6,872l62.7-137.9h30.6l61.7,137.9h-29.4l-13.5-30.6h-69.8l-14.5,30.6H1246.6z M1324.9,760l-23.2,53.4
				h45.8l-22.4-53.4H1324.9z"/>
			<linearGradient id="SVGID_12_" gradientUnits="userSpaceOnUse" x1="1432.4662" y1="802.8806" x2="1554.6981" y2="802.8806">
				<stop  offset="0" style="stop-color:#ED1C24;stop-opacity:0.9"/>
				<stop  offset="0.5503" style="stop-color:#8DC63F;stop-opacity:0.8"/>
				<stop  offset="1" style="stop-color:#DA1C5C"/>
			</linearGradient>
			<path class="st12" d="M1459,776.7v95.5h-26.5V733.5h34.8l61.7,86.3v-86.3h25.7v138.7H1529L1459,776.7z"/>
			<linearGradient id="SVGID_13_" gradientUnits="userSpaceOnUse" x1="1588.9364" y1="803.074" x2="1706.7205" y2="803.074">
				<stop  offset="0" style="stop-color:#ED1C24;stop-opacity:0.9"/>
				<stop  offset="0.5503" style="stop-color:#8DC63F;stop-opacity:0.8"/>
				<stop  offset="1" style="stop-color:#DA1C5C"/>
			</linearGradient>
			<path class="st13" d="M1632.8,759.5h-43.9v-25.3h117.8v25.5h-43.5V872h-30.4V759.5z"/>
		</g>
	</g>
</g>
<g>
</g>
<g>
</g>
<g>
</g>
<g>
</g>
<g>
</g>
<g>
</g>
</svg>
